<svg width="22" height="18" viewBox="0 0 22 18" fill="none" xmlns="http://www.w3.org/2000/svg">
<path fill-rule="evenodd" clip-rule="evenodd" d="M22 9C22 9.55228 21.5523 10 21 10H3.41421L9.70711 16.2929C10.0976 16.6834 10.0976 17.3166 9.70711 17.7071C9.31658 18.0976 8.68342 18.0976 8.29289 17.7071L0.292892 9.7071C0.105356 9.51957 -1.1593e-08 9.26521 0 9C1.1593e-08 8.73478 0.105356 8.48043 0.292892 8.29289L8.29289 0.292893C8.68342 -0.0976311 9.31658 -0.097631 9.70711 0.292893C10.0976 0.683418 10.0976 1.31658 9.70711 1.70711L3.41422 8H21C21.5523 8 22 8.44771 22 9Z" fill="#ffffff"/>
</svg>
