<svg width="40" height="40" viewBox="0 0 40 40" fill="none" xmlns="http://www.w3.org/2000/svg">
<path d="M7.0001 8.33334H11.8751L15.1251 5H24.8751L28.1251 8.33334H33.0001C33.8621 8.33334 34.6887 8.68452 35.2982 9.30965C35.9077 9.93477 36.2501 10.7826 36.2501 11.6667V31.6667C36.2501 32.5507 35.9077 33.3986 35.2982 34.0237C34.6887 34.6488 33.8621 35 33.0001 35H7.0001C6.13814 35 5.31149 34.6488 4.702 34.0237C4.09251 33.3986 3.7501 32.5507 3.7501 31.6667V11.6667C3.7501 10.7826 4.09251 9.93477 4.702 9.30965C5.31149 8.68452 6.13814 8.33334 7.0001 8.33334Z" stroke="#45536D" stroke-width="2" stroke-linejoin="round"/>
<circle cx="20" cy="21.25" r="7.75" stroke="#45536D" stroke-width="2"/>
</svg>
