<svg width="25" height="24" viewBox="0 0 25 24" fill="none" xmlns="http://www.w3.org/2000/svg">
<path d="M12.458 21C16.458 16.8 18.458 12.8 18.458 9C18.458 5.68629 15.7717 3 12.458 3C9.1443 3 6.45801 5.68629 6.45801 9C6.45801 12.8 8.45801 16.8 12.458 21Z" stroke="#37D5D6" stroke-width="2" stroke-linecap="round"/>
<path d="M12.458 21C16.458 16.8 18.458 12.8 18.458 9C18.458 5.68629 15.7717 3 12.458 3C9.1443 3 6.45801 5.68629 6.45801 9C6.45801 12.8 8.45801 16.8 12.458 21Z" stroke="black" stroke-opacity="0" stroke-width="2" stroke-linecap="round"/>
<path d="M12.458 11C13.5626 11 14.458 10.1046 14.458 9C14.458 7.89543 13.5626 7 12.458 7C11.3534 7 10.458 7.89543 10.458 9C10.458 10.1046 11.3534 11 12.458 11Z" stroke="#37D5D6" stroke-width="2" stroke-linecap="round" stroke-linejoin="round"/>
<path d="M12.458 11C13.5626 11 14.458 10.1046 14.458 9C14.458 7.89543 13.5626 7 12.458 7C11.3534 7 10.458 7.89543 10.458 9C10.458 10.1046 11.3534 11 12.458 11Z" stroke="black" stroke-opacity="0" stroke-width="2" stroke-linecap="round" stroke-linejoin="round"/>
</svg>
