<svg width="16" height="20" viewBox="0 0 16 20" fill="none" xmlns="http://www.w3.org/2000/svg">
<path fill-rule="evenodd" clip-rule="evenodd" d="M7 2C6.44772 2 6 2.44772 6 3H10C10 2.44772 9.55228 2 9 2H7ZM12 3C12 1.34315 10.6569 0 9 0H7C5.34315 0 4 1.34315 4 3H3.00346H1C0.447715 3 0 3.44772 0 4C0 4.55228 0.447715 5 1 5H1.11765L1.77852 16.2349C1.90289 18.3491 3.65371 20 5.77162 20H10.2284C12.3463 20 14.0971 18.3491 14.2215 16.2349L14.8824 5H15C15.5523 5 16 4.55228 16 4C16 3.44772 15.5523 3 15 3H12.9965H12ZM12.8789 5H12H10H6H4H3.1211L3.77507 16.1174C3.83726 17.1746 4.71267 18 5.77162 18H10.2284C11.2873 18 12.1627 17.1746 12.2249 16.1174L12.8789 5Z" fill="#929FB1"/>
</svg>
