<svg width="24" height="24" viewBox="0 0 24 24" fill="none" xmlns="http://www.w3.org/2000/svg">
<path fill-rule="evenodd" clip-rule="evenodd" d="M12.0005 2C10.3363 2 9.08118 2.66083 8.30444 3.74613C7.55757 4.7897 7.33353 6.11064 7.44182 7.33789C7.55051 8.56976 8.00181 9.81959 8.74891 10.7842C9.50108 11.7554 10.612 12.5 12.0005 12.5C13.3889 12.5 14.4998 11.7554 15.252 10.7842C15.9991 9.81959 16.4504 8.56976 16.5591 7.33789C16.6674 6.11064 16.4433 4.7897 15.6965 3.74613C14.9197 2.66083 13.6646 2 12.0005 2ZM12.0005 10.5C11.3889 10.5 10.8123 10.1821 10.3301 9.55955C9.84284 8.93041 9.51289 8.05524 9.43408 7.16211C9.35487 6.26436 9.53708 5.4603 9.93083 4.91012C10.2947 4.40167 10.9146 4 12.0005 4C13.0863 4 13.7062 4.40167 14.0701 4.91012C14.4638 5.4603 14.646 6.26436 14.5668 7.16211C14.488 8.05524 14.1581 8.93041 13.6708 9.55955C13.1886 10.1821 12.612 10.5 12.0005 10.5ZM18.4875 15.8662C14.2988 13.3876 9.05479 13.495 4.96081 16.1194C3.74327 16.8998 3 18.2502 3 19.7001C3 20.9703 4.02971 22 5.29993 22H18.7315C19.9843 22 21 20.9843 21 19.7315C21 18.2571 20.2217 16.8923 18.9529 16.1415L18.4875 15.8662ZM6.04015 17.8031C9.50156 15.5843 13.9341 15.4958 17.469 17.5874L17.9344 17.8628C18.5949 18.2536 19 18.964 19 19.7315C19 19.8798 18.8798 20 18.7315 20H5.29993C5.13429 20 5 19.8657 5 19.7001C5 18.9353 5.39327 18.2178 6.04015 17.8031Z" fill="#182744"/>
</svg>
