<svg width="24" height="24" viewBox="0 0 24 24" fill="none" xmlns="http://www.w3.org/2000/svg">
<path d="M10 6C10 5.44772 10.4477 5 11 5V3C9.34315 3 8 4.34315 8 6H10ZM10 8V6H8V8H10ZM6 10H8V8H6V10ZM5 11C5 10.4477 5.44772 10 6 10V8C4.34315 8 3 9.34315 3 11H5ZM5 13V11H3V13H5ZM6 14C5.44772 14 5 13.5523 5 13H3C3 14.6569 4.34315 16 6 16V14ZM8 14H6V16H8V14ZM10 18V16H8V18H10ZM11 19C10.4477 19 10 18.5523 10 18H8C8 19.6569 9.34315 21 11 21V19ZM13 19H11V21H13V19ZM14 18C14 18.5523 13.5523 19 13 19V21C14.6569 21 16 19.6569 16 18H14ZM14 16V18H16V16H14ZM18 14H16V16H18V14ZM19 13C19 13.5523 18.5523 14 18 14V16C19.6569 16 21 14.6569 21 13H19ZM19 11V13H21V11H19ZM18 10C18.5523 10 19 10.4477 19 11H21C21 9.34315 19.6569 8 18 8V10ZM16 10H18V8H16V10ZM14 6V8H16V6H14ZM13 5C13.5523 5 14 5.44772 14 6H16C16 4.34315 14.6569 3 13 3V5ZM11 5H13V3H11V5ZM16 8H14C14 9.10457 14.8954 10 16 10V8ZM16 16V14C14.8954 14 14 14.8954 14 16H16ZM8 16H10C10 14.8954 9.10457 14 8 14V16ZM8 8V10C9.10457 10 10 9.10457 10 8H8Z" fill="#37D5D6"/>
</svg>
