<svg width="24" height="24" viewBox="0 0 24 24" fill="none" xmlns="http://www.w3.org/2000/svg">
<g clip-path="url(#clip0)">
<path fill-rule="evenodd" clip-rule="evenodd" d="M6 2C3.23858 2 1 4.23858 1 7V17C1 19.7614 3.23858 22 6 22H11C13.7614 22 16 19.7614 16 17V16C16 15.4477 15.5523 15 15 15C14.4477 15 14 15.4477 14 16V17C14 18.6569 12.6569 20 11 20H6C4.34315 20 3 18.6569 3 17V7C3 5.34315 4.34315 4 6 4H11C12.6569 4 14 5.34315 14 7V8C14 8.55228 14.4477 9 15 9C15.5523 9 16 8.55228 16 8V7C16 4.23858 13.7614 2 11 2H6ZM19.7071 7.29289C19.3166 6.90237 18.6834 6.90237 18.2929 7.29289C17.9024 7.68342 17.9024 8.31658 18.2929 8.70711L20.5858 11H12C11.4477 11 11 11.4477 11 12C11 12.5523 11.4477 13 12 13H20.5858L18.2929 15.2929C17.9024 15.6834 17.9024 16.3166 18.2929 16.7071C18.6834 17.0976 19.3166 17.0976 19.7071 16.7071L23.7071 12.7071C24.0976 12.3166 24.0976 11.6834 23.7071 11.2929L19.7071 7.29289Z" fill="#182744"/>
</g>
<defs>
<clipPath id="clip0">
<rect width="24" height="24" fill="white"/>
</clipPath>
</defs>
</svg>
