<svg width="24" height="24" viewBox="0 0 24 24" fill="none" xmlns="http://www.w3.org/2000/svg">
<path d="M18.7693 12.891L18.7602 12.909C18.7967 12.612 18.8331 12.306 18.8331 12C18.8331 11.694 18.8058 11.406 18.7693 11.109L18.7785 11.127L21 9.399L18.7876 5.601L16.1745 6.645L16.1836 6.654C15.7102 6.294 15.1912 5.988 14.6267 5.754H14.6358L14.217 3H9.783L9.3824 5.763H9.3915C8.82701 5.997 8.30804 6.303 7.8346 6.663L7.8437 6.654L5.22155 5.601L3 9.399L5.22155 11.127L5.23065 11.109C5.19423 11.406 5.16692 11.694 5.16692 12C5.16692 12.306 5.19423 12.612 5.23976 12.909L5.23065 12.891L3.31866 14.376L3.01821 14.61L5.23065 18.39L7.85281 17.355L7.8346 17.319C8.31715 17.688 8.83612 17.994 9.40971 18.228H9.3824L9.79211 21H14.2079C14.2079 21 14.2352 20.838 14.2625 20.622L14.6085 18.237H14.5994C15.1639 18.003 15.692 17.697 16.1745 17.328L16.1563 17.364L18.7785 18.399L20.9909 14.619C20.9909 14.619 20.8634 14.511 20.6904 14.385L18.7693 12.891ZM11.9954 15.15C10.2382 15.15 8.8088 13.737 8.8088 12C8.8088 10.263 10.2382 8.85 11.9954 8.85C13.7527 8.85 15.1821 10.263 15.1821 12C15.1821 13.737 13.7527 15.15 11.9954 15.15Z" stroke="#182744" stroke-width="2" stroke-linejoin="round"/>
</svg>
