<svg width="189" height="62" viewBox="0 0 189 62" fill="none" xmlns="http://www.w3.org/2000/svg">
<g filter="url(#filter0_d)">
<path fill-rule="evenodd" clip-rule="evenodd" d="M20.384 8.39247C20.384 7.96702 20.7281 7.62212 21.1526 7.62212H32.4973C32.9217 7.62212 33.2658 7.96702 33.2658 8.39247V15.7405C33.2658 18.7186 35.6745 21.1329 38.6457 21.1329H45.27C45.6945 21.1329 46.0386 21.4778 46.0386 21.9033V33.4734C46.0386 33.8988 45.6945 34.2437 45.27 34.2437H40.8472V38.8659H45.27C48.2412 38.8659 50.6498 36.4516 50.6498 33.4734V21.9033C50.6498 18.9251 48.2412 16.5108 45.27 16.5108H38.6457C38.2212 16.5108 37.8771 16.1659 37.8771 15.7405V8.39247C37.8771 5.41429 35.4685 3 32.4973 3H21.1526C18.1814 3 15.7727 5.4143 15.7727 8.39247V24.4662C15.7727 27.4444 18.1814 29.8587 21.1526 29.8587H32.4973C32.9217 29.8587 33.2658 30.2036 33.2658 30.629V46.1398C33.2658 46.5652 32.9217 46.9101 32.4973 46.9101H21.1526C20.7281 46.9101 20.384 46.5652 20.384 46.1398V39.6362C20.384 36.658 17.9754 34.2437 15.0042 34.2437H8.37982C7.95537 34.2437 7.61128 33.8988 7.61128 33.4734V21.9033C7.61128 21.4778 7.95536 21.1329 8.37982 21.1329H12.525V16.5108H8.37982C5.40862 16.5108 3 18.9251 3 21.9033V33.4734C3 36.4516 5.40863 38.8659 8.37982 38.8659H15.0042C15.4286 38.8659 15.7727 39.2108 15.7727 39.6362V46.1398C15.7727 49.118 18.1814 51.5322 21.1526 51.5322H32.4973C35.4685 51.5322 37.8771 49.118 37.8771 46.1398V30.629C37.8771 27.6508 35.4685 25.2365 32.4973 25.2365H21.1526C20.7281 25.2365 20.384 24.8916 20.384 24.4662V8.39247ZM59.4741 25.9743H69.0943C71.1628 25.9743 72.799 25.3617 74.0029 24.1364C75.2178 22.9001 75.8252 21.281 75.8252 19.2789C75.8252 17.8567 75.4421 16.6478 74.676 15.6523C73.9099 14.6567 72.9577 14.0058 71.8195 13.6995C73.6144 12.879 74.5118 11.3802 74.5118 9.20307C74.5118 7.26666 73.9318 5.75145 72.7717 4.65743C71.6115 3.55248 69.9808 3 67.8795 3H59.4741V25.9743ZM70.5718 9.39999C70.5718 10.3846 70.3037 11.1395 69.7674 11.6646C69.2311 12.1897 68.5142 12.4523 67.6168 12.4523H63.3484V6.34769H67.6168C68.5142 6.34769 69.2311 6.61025 69.7674 7.13538C70.3037 7.66051 70.5718 8.41538 70.5718 9.39999ZM71.0151 16.6041C71.5951 17.2277 71.8851 18.0755 71.8851 19.1477C71.8851 20.2089 71.5951 21.0567 71.0151 21.6913C70.4459 22.3148 69.6962 22.6266 68.766 22.6266H63.3484V15.6687H68.766C69.6962 15.6687 70.4459 15.9805 71.0151 16.6041ZM95.3627 25.9743V8.97333H91.8166L83.2143 20.7559V8.97333H79.6026V25.9743H83.1486L91.751 14.1918V25.9743H95.3627ZM108.5 20.7559C108.5 20.0776 108.193 19.5087 107.581 19.0492C106.968 18.5897 106.202 18.36 105.282 18.36H102.853V15.2749H105.381C106.081 15.2749 106.661 15.1108 107.121 14.7825C107.581 14.4434 107.81 14.0277 107.81 13.5354C107.81 13.0431 107.581 12.6328 107.121 12.3046C106.661 11.9655 106.081 11.7959 105.381 11.7959C104.691 11.7959 104.089 11.949 103.575 12.2554C103.061 12.5508 102.677 12.9555 102.426 13.4697L99.4379 11.6318C99.9413 10.669 100.696 9.91965 101.703 9.38358C102.721 8.84751 103.947 8.57948 105.381 8.57948C107.132 8.57948 108.598 9.02803 109.78 9.92512C110.962 10.8222 111.553 11.9272 111.553 13.24C111.553 14.0167 111.318 14.7278 110.848 15.3733C110.388 16.0188 109.748 16.4783 108.927 16.7518C109.868 17.0362 110.656 17.5723 111.291 18.36C111.926 19.1477 112.243 20.0338 112.243 21.0184C112.243 22.5282 111.575 23.7972 110.24 24.8256C108.905 25.854 107.252 26.3682 105.282 26.3682C103.827 26.3682 102.524 26.1001 101.375 25.5641C100.237 25.0171 99.3503 24.2677 98.7155 23.3159L101.277 21.2154C102.251 22.5063 103.586 23.1518 105.282 23.1518C106.202 23.1518 106.968 22.922 107.581 22.4625C108.193 22.003 108.5 21.4342 108.5 20.7559ZM131.787 25.9743V8.97333H128.241L119.639 20.7559V8.97333H116.027V25.9743H119.573L128.176 14.1918V25.9743H131.787ZM140 12.321H134.812V8.97333H148.93V12.321H143.743V25.9743H140V12.321ZM157.291 18.1302L162.446 25.9743H166.714L160.41 16.522L165.828 8.97333H161.428L157.34 14.9138H155.682V8.97333H151.939V25.9743H155.682V18.1302H157.291ZM176.724 23.0205C177.819 23.0205 178.809 22.747 179.696 22.2C180.593 21.642 181.266 20.8981 181.715 19.9682V15.0123C181.266 14.0824 180.593 13.3384 179.696 12.7805C178.798 12.2116 177.808 11.9272 176.724 11.9272C175.17 11.9272 173.857 12.4632 172.784 13.5354C171.712 14.6075 171.176 15.9203 171.176 17.4738C171.176 19.0273 171.712 20.3401 172.784 21.4123C173.857 22.4844 175.17 23.0205 176.724 23.0205ZM176.068 8.57948C178.344 8.57948 180.227 9.32341 181.715 10.8113V8.97333H185.458V25.9743H181.715V24.1364C180.227 25.6242 178.344 26.3682 176.068 26.3682C174.426 26.3682 172.932 25.9634 171.586 25.1538C170.251 24.3442 169.211 23.2612 168.467 21.9046C167.734 20.548 167.367 19.0711 167.367 17.4738C167.367 15.8766 167.734 14.3996 168.467 13.0431C169.211 11.6865 170.251 10.6034 171.586 9.79384C172.932 8.98426 174.426 8.57948 176.068 8.57948ZM59.4741 51.3857H66.9601C68.6018 51.3857 69.9808 50.9152 71.0972 49.9744C72.2135 49.0335 72.7717 47.8739 72.7717 46.4954C72.7717 45.5546 72.4707 44.6957 71.8687 43.919C71.2777 43.1313 70.539 42.6335 69.6525 42.4257C70.342 42.1412 70.9001 41.6817 71.327 41.0472C71.7648 40.4127 71.9836 39.7125 71.9836 38.9467C71.9836 37.6558 71.4529 36.5727 70.3912 35.6975C69.3296 34.8223 68.0108 34.3847 66.4348 34.3847H59.4741V51.3857ZM63.2171 44.198H66.7631C67.4088 44.198 67.9451 44.3949 68.372 44.7887C68.8097 45.1716 69.0286 45.6421 69.0286 46.2C69.0286 46.758 68.8152 47.2284 68.3884 47.6113C67.9615 47.9833 67.4198 48.1693 66.7631 48.1693H63.2171V44.198ZM66.1721 41.1129H63.2171V37.6011H66.1721C66.7631 37.6011 67.2556 37.7652 67.6496 38.0934C68.0436 38.4216 68.2406 38.8373 68.2406 39.3405C68.2406 39.8547 68.0436 40.2814 67.6496 40.6205C67.2666 40.9487 66.7741 41.1129 66.1721 41.1129ZM85.2659 48.4318C86.82 48.4318 88.1333 47.8957 89.2059 46.8236C90.2784 45.7515 90.8147 44.4387 90.8147 42.8852C90.8147 41.3316 90.2784 40.0188 89.2059 38.9467C88.1333 37.8746 86.82 37.3385 85.2659 37.3385C84.1824 37.3385 83.1919 37.6229 82.2944 38.1918C81.397 38.7498 80.7239 39.4937 80.2751 40.4236V45.3795C80.7239 46.3094 81.3915 47.0534 82.278 47.6113C83.1754 48.1583 84.1714 48.4318 85.2659 48.4318ZM85.9225 33.9908C87.5642 33.9908 89.0527 34.3956 90.3879 35.2052C91.7341 36.0147 92.7738 37.0978 93.5071 38.4544C94.2513 39.811 94.6234 41.2879 94.6234 42.8852C94.6234 44.4824 94.2513 45.9593 93.5071 47.3159C92.7738 48.6725 91.7341 49.7556 90.3879 50.5651C89.0527 51.3747 87.5642 51.7795 85.9225 51.7795C83.6461 51.7795 81.7636 51.0356 80.2751 49.5477V59H76.5321V34.3847H80.2751V36.2226C81.7636 34.7347 83.6461 33.9908 85.9225 33.9908ZM109.259 47.6113C108.372 48.1583 107.382 48.4318 106.288 48.4318C104.733 48.4318 103.42 47.8957 102.347 46.8236C101.275 45.7515 100.739 44.4387 100.739 42.8852C100.739 41.3316 101.275 40.0188 102.347 38.9467C103.42 37.8746 104.733 37.3385 106.288 37.3385C107.371 37.3385 108.362 37.6229 109.259 38.1918C110.156 38.7498 110.829 39.4937 111.278 40.4236V45.3795C110.829 46.3094 110.156 47.0534 109.259 47.6113ZM111.278 36.2226C109.79 34.7347 107.907 33.9908 105.631 33.9908C103.989 33.9908 102.495 34.3956 101.149 35.2052C99.8139 36.0147 98.7741 37.0978 98.0299 38.4544C97.2966 39.811 96.93 41.2879 96.93 42.8852C96.93 44.4824 97.2966 45.9593 98.0299 47.3159C98.7741 48.6725 99.8139 49.7556 101.149 50.5651C102.495 51.3747 103.989 51.7795 105.631 51.7795C107.907 51.7795 109.79 51.0356 111.278 49.5477V51.3857H115.021V34.3847H111.278V36.2226ZM129.509 51.3857V44.559C128.973 45.2263 128.322 45.746 127.555 46.118C126.8 46.479 125.974 46.6595 125.077 46.6595C123.314 46.6595 121.826 46.0414 120.611 44.8052C119.407 43.558 118.805 42.0318 118.805 40.2267V34.3847H122.548V40.0298C122.548 40.9706 122.855 41.7528 123.468 42.3764C124.091 43 124.869 43.3118 125.799 43.3118C126.642 43.3118 127.375 43.0875 127.999 42.639C128.623 42.1905 129.126 41.6052 129.509 40.8831V34.3847H133.252V51.3857H129.509ZM149.018 47.6113C148.132 48.1583 147.141 48.4318 146.047 48.4318C144.493 48.4318 143.179 47.8957 142.107 46.8236C141.034 45.7515 140.498 44.4387 140.498 42.8852C140.498 41.3316 141.034 40.0188 142.107 38.9467C143.179 37.8746 144.493 37.3385 146.047 37.3385C147.13 37.3385 148.121 37.6229 149.018 38.1918C149.916 38.7498 150.589 39.4937 151.038 40.4236V45.3795C150.589 46.3094 149.916 47.0534 149.018 47.6113ZM151.038 36.2226C149.549 34.7347 147.667 33.9908 145.39 33.9908C143.749 33.9908 142.255 34.3956 140.908 35.2052C139.573 36.0147 138.533 37.0978 137.789 38.4544C137.056 39.811 136.689 41.2879 136.689 42.8852C136.689 44.4824 137.056 45.9593 137.789 47.3159C138.533 48.6725 139.573 49.7556 140.908 50.5651C142.255 51.3747 143.749 51.7795 145.39 51.7795C147.667 51.7795 149.549 51.0356 151.038 49.5477V51.3857H154.781V34.3847H151.038V36.2226Z" fill="url(#paint0_linear)"/>
</g>
<defs>
<filter id="filter0_d" x="0" y="0" width="188.458" height="62" filterUnits="userSpaceOnUse" color-interpolation-filters="sRGB">
<feFlood flood-opacity="0" result="BackgroundImageFix"/>
<feColorMatrix in="SourceAlpha" type="matrix" values="0 0 0 0 0 0 0 0 0 0 0 0 0 0 0 0 0 0 127 0"/>
<feOffset/>
<feGaussianBlur stdDeviation="1.5"/>
<feColorMatrix type="matrix" values="0 0 0 0 0.102934 0 0 0 0 0.239718 0 0 0 0 0.504167 0 0 0 0.05 0"/>
<feBlend mode="normal" in2="BackgroundImageFix" result="effect1_dropShadow"/>
<feBlend mode="normal" in="SourceGraphic" in2="effect1_dropShadow" result="shape"/>
</filter>
<linearGradient id="paint0_linear" x1="2.99999" y1="59" x2="124.051" y2="-59.6497" gradientUnits="userSpaceOnUse">
<stop offset="0.078125" stop-color="#37D5D6"/>
<stop offset="0.927083" stop-color="#A55BFF"/>
<stop offset="0.958333" stop-color="#A55BFF"/>
</linearGradient>
</defs>
</svg>
