<svg width="107" height="38" viewBox="0 0 107 38" fill="none" xmlns="http://www.w3.org/2000/svg">
<g filter="url(#filter0_d)">
<path fill-rule="evenodd" clip-rule="evenodd" d="M13.0855 6.14474C13.0855 5.89662 13.2851 5.69549 13.5314 5.69549H20.1131C20.3593 5.69549 20.559 5.89662 20.559 6.14474V10.4299C20.559 12.1667 21.9563 13.5746 23.6801 13.5746H27.5233C27.7695 13.5746 27.9692 13.7757 27.9692 14.0239V20.7712C27.9692 21.0193 27.7695 21.2205 27.5233 21.2205H24.9573V23.916H27.5233C29.2471 23.916 30.6444 22.508 30.6444 20.7712V14.0239C30.6444 12.2871 29.2471 10.8791 27.5233 10.8791H23.6801C23.4339 10.8791 23.2342 10.678 23.2342 10.4299V6.14474C23.2342 4.40795 21.8368 3 20.1131 3H13.5314C11.8076 3 10.4102 4.40795 10.4102 6.14474V15.5185C10.4102 17.2553 11.8076 18.6632 13.5314 18.6632H20.1131C20.3593 18.6632 20.559 18.8643 20.559 19.1125V28.1579C20.559 28.406 20.3593 28.6071 20.1131 28.6071H13.5314C13.2851 28.6071 13.0855 28.406 13.0855 28.1579V24.3652C13.0855 22.6284 11.6881 21.2205 9.96433 21.2205H6.12115C5.8749 21.2205 5.67527 21.0193 5.67527 20.7712V14.0239C5.67527 13.7757 5.87489 13.5746 6.12115 13.5746H8.52601V10.8791H6.12115C4.39738 10.8791 3 12.2871 3 14.0239V20.7712C3 22.508 4.39738 23.916 6.12115 23.916H9.96433C10.2106 23.916 10.4102 24.1171 10.4102 24.3652V28.1579C10.4102 29.8947 11.8076 31.3026 13.5314 31.3026H20.1131C21.8368 31.3026 23.2342 29.8947 23.2342 28.1579V19.1125C23.2342 17.3757 21.8368 15.9677 20.1131 15.9677H13.5314C13.2851 15.9677 13.0855 15.7666 13.0855 15.5185V6.14474ZM37.2265 15.1694H42.3223C43.4179 15.1694 44.2846 14.8449 44.9223 14.1959C45.5658 13.541 45.8876 12.6834 45.8876 11.6229C45.8876 10.8695 45.6847 10.2292 45.2789 9.70187C44.8731 9.17452 44.3687 8.82972 43.7658 8.66747C44.7165 8.23284 45.1919 7.43894 45.1919 6.28574C45.1919 5.26003 44.8847 4.45743 44.2701 3.87794C43.6556 3.29265 42.7918 3 41.6788 3H37.2265V15.1694ZM43.1049 6.39005C43.1049 6.9116 42.9629 7.31145 42.6788 7.5896C42.3947 7.86776 42.015 8.00684 41.5396 8.00684H39.2787V4.77326H41.5396C42.015 4.77326 42.3947 4.91234 42.6788 5.19049C42.9629 5.46865 43.1049 5.8685 43.1049 6.39005ZM43.3397 10.206C43.6469 10.5363 43.8006 10.9854 43.8006 11.5534C43.8006 12.1155 43.6469 12.5646 43.3397 12.9007C43.0382 13.231 42.6411 13.3961 42.1483 13.3961H39.2787V9.71056H42.1483C42.6411 9.71056 43.0382 9.87571 43.3397 10.206ZM56.2365 15.1694V6.16405H54.3582L49.8015 12.4052V6.16405H47.8884V15.1694H49.7668L54.3234 8.92824V15.1694H56.2365ZM62.7083 13.3092C63.0329 13.0658 63.1953 12.7645 63.1953 12.4052C63.1953 12.0459 63.0329 11.7446 62.7083 11.5012C62.3836 11.2578 61.9778 11.1361 61.4909 11.1361H60.2039V9.50194H61.543C61.9141 9.50194 62.2213 9.41501 62.4648 9.24117C62.7083 9.06152 62.83 8.84131 62.83 8.58054C62.83 8.31977 62.7083 8.10246 62.4648 7.92861C62.2213 7.74897 61.9141 7.65914 61.543 7.65914C61.1778 7.65914 60.859 7.74027 60.5865 7.90253C60.314 8.059 60.1111 8.27341 59.9778 8.54577L58.3951 7.57222C58.6618 7.06226 59.0618 6.66531 59.5952 6.38136C60.1343 6.0974 60.7836 5.95543 61.543 5.95543C62.4706 5.95543 63.2474 6.19302 63.8735 6.66821C64.4996 7.14339 64.8127 7.72868 64.8127 8.42408C64.8127 8.83552 64.6881 9.21219 64.4388 9.55409C64.1953 9.896 63.8562 10.1394 63.4214 10.2843C63.9199 10.4349 64.3373 10.7189 64.6736 11.1361C65.0098 11.5534 65.1779 12.0227 65.1779 12.5443C65.1779 13.344 64.8243 14.0162 64.117 14.5609C63.4098 15.1057 62.5344 15.378 61.4909 15.378C60.7198 15.378 60.03 15.236 59.4212 14.9521C58.8183 14.6623 58.3488 14.2654 58.0125 13.7612L59.3691 12.6486C59.885 13.3324 60.5923 13.6743 61.4909 13.6743C61.9778 13.6743 62.3836 13.5526 62.7083 13.3092ZM75.5305 15.1694V6.16405H73.6522L69.0956 12.4052V6.16405H67.1825V15.1694H69.0608L73.6174 8.92824V15.1694H75.5305ZM79.8805 7.9373H77.1326V6.16405H84.6111V7.9373H81.8632V15.1694H79.8805V7.9373ZM89.0396 11.0144L91.7701 15.1694H94.031L90.6918 10.1626L93.5615 6.16405H91.231L89.0657 9.31071H88.1874V6.16405H86.2047V15.1694H88.1874V11.0144H89.0396ZM99.3335 13.6048C99.9132 13.6048 100.438 13.4599 100.907 13.1701C101.383 12.8746 101.739 12.4805 101.977 11.988V9.36286C101.739 8.87029 101.383 8.47623 100.907 8.18069C100.432 7.87935 99.9074 7.72868 99.3335 7.72868C98.5103 7.72868 97.8146 8.01264 97.2465 8.58054C96.6784 9.14845 96.3943 9.84384 96.3943 10.6667C96.3943 11.4896 96.6784 12.185 97.2465 12.7529C97.8146 13.3208 98.5103 13.6048 99.3335 13.6048ZM98.9857 5.95543C100.192 5.95543 101.189 6.34948 101.977 7.1376V6.16405H103.96V15.1694H101.977V14.1959C101.189 14.984 100.192 15.378 98.9857 15.378C98.1161 15.378 97.3248 15.1636 96.6117 14.7348C95.9044 14.306 95.3537 13.7323 94.9595 13.0137C94.5711 12.2951 94.3768 11.5128 94.3768 10.6667C94.3768 9.82066 94.5711 9.03834 94.9595 8.31977C95.3537 7.60119 95.9044 7.02749 96.6117 6.59867C97.3248 6.16984 98.1161 5.95543 98.9857 5.95543ZM37.2265 30.9667H41.1918C42.0614 30.9667 42.7918 30.7175 43.3832 30.2192C43.9745 29.7208 44.2701 29.1065 44.2701 28.3764C44.2701 27.878 44.1107 27.4231 43.7919 27.0117C43.4788 26.5944 43.0875 26.3308 42.6179 26.2206C42.9831 26.07 43.2788 25.8266 43.5049 25.4905C43.7368 25.1544 43.8527 24.7835 43.8527 24.3778C43.8527 23.694 43.5716 23.1203 43.0092 22.6567C42.4469 22.1932 41.7483 21.9614 40.9135 21.9614H37.2265V30.9667ZM39.2091 27.1594H41.0874C41.4295 27.1594 41.7135 27.2637 41.9396 27.4724C42.1715 27.6752 42.2875 27.9244 42.2875 28.2199C42.2875 28.5154 42.1744 28.7646 41.9483 28.9675C41.7222 29.1645 41.4353 29.263 41.0874 29.263H39.2091V27.1594ZM40.7744 25.5252H39.2091V23.6651H40.7744C41.0874 23.6651 41.3483 23.752 41.557 23.9258C41.7657 24.0997 41.8701 24.3199 41.8701 24.5865C41.8701 24.8588 41.7657 25.0848 41.557 25.2645C41.3541 25.4383 41.0932 25.5252 40.7744 25.5252ZM50.8883 29.4021C51.7115 29.4021 52.4071 29.1181 52.9753 28.5502C53.5434 27.9823 53.8275 27.2869 53.8275 26.464C53.8275 25.6411 53.5434 24.9458 52.9753 24.3778C52.4071 23.8099 51.7115 23.526 50.8883 23.526C50.3143 23.526 49.7897 23.6767 49.3143 23.978C48.8389 24.2735 48.4824 24.6676 48.2447 25.1602V27.7853C48.4824 28.2779 48.836 28.6719 49.3056 28.9675C49.781 29.2572 50.3085 29.4021 50.8883 29.4021ZM51.2361 21.7527C52.1057 21.7527 52.8941 21.9671 53.6014 22.396C54.3144 22.8248 54.8652 23.3985 55.2536 24.1171C55.6478 24.8357 55.8449 25.618 55.8449 26.464C55.8449 27.3101 55.6478 28.0924 55.2536 28.811C54.8652 29.5296 54.3144 30.1033 53.6014 30.5321C52.8941 30.9609 52.1057 31.1753 51.2361 31.1753C50.0303 31.1753 49.0331 30.7813 48.2447 29.9932V35H46.262V21.9614H48.2447V22.9349C49.0331 22.1468 50.0303 21.7527 51.2361 21.7527ZM63.5973 28.9675C63.1277 29.2572 62.6031 29.4021 62.0234 29.4021C61.2001 29.4021 60.5045 29.1181 59.9363 28.5502C59.3682 27.9823 59.0841 27.2869 59.0841 26.464C59.0841 25.6411 59.3682 24.9458 59.9363 24.3778C60.5045 23.8099 61.2001 23.526 62.0234 23.526C62.5973 23.526 63.1219 23.6767 63.5973 23.978C64.0727 24.2735 64.4292 24.6676 64.6669 25.1602V27.7853C64.4292 28.2779 64.0727 28.6719 63.5973 28.9675ZM64.6669 22.9349C63.8785 22.1468 62.8814 21.7527 61.6755 21.7527C60.8059 21.7527 60.0146 21.9671 59.3016 22.396C58.5943 22.8248 58.0435 23.3985 57.6493 24.1171C57.2609 24.8357 57.0667 25.618 57.0667 26.464C57.0667 27.3101 57.2609 28.0924 57.6493 28.811C58.0435 29.5296 58.5943 30.1033 59.3016 30.5321C60.0146 30.9609 60.8059 31.1753 61.6755 31.1753C62.8814 31.1753 63.8785 30.7813 64.6669 29.9932V30.9667H66.6496V21.9614H64.6669V22.9349ZM74.3237 30.9667V27.3507C74.0396 27.7042 73.6947 27.9794 73.2889 28.1764C72.8889 28.3677 72.4512 28.4633 71.9758 28.4633C71.0425 28.4633 70.254 28.1359 69.6105 27.481C68.9728 26.8204 68.654 26.012 68.654 25.0559V21.9614H70.6366V24.9515C70.6366 25.4499 70.799 25.8643 71.1236 26.1946C71.4541 26.5249 71.8657 26.69 72.3584 26.69C72.8048 26.69 73.1932 26.5712 73.5237 26.3336C73.8541 26.0961 74.1208 25.786 74.3237 25.4036V21.9614H76.3064V30.9667H74.3237ZM84.6577 28.9675C84.1881 29.2572 83.6635 29.4021 83.0837 29.4021C82.2605 29.4021 81.5648 29.1181 80.9967 28.5502C80.4286 27.9823 80.1445 27.2869 80.1445 26.464C80.1445 25.6411 80.4286 24.9458 80.9967 24.3778C81.5648 23.8099 82.2605 23.526 83.0837 23.526C83.6577 23.526 84.1823 23.6767 84.6577 23.978C85.1331 24.2735 85.4896 24.6676 85.7273 25.1602V27.7853C85.4896 28.2779 85.1331 28.6719 84.6577 28.9675ZM85.7273 22.9349C84.9389 22.1468 83.9417 21.7527 82.7359 21.7527C81.8663 21.7527 81.075 21.9671 80.3619 22.396C79.6547 22.8248 79.1039 23.3985 78.7097 24.1171C78.3213 24.8357 78.1271 25.618 78.1271 26.464C78.1271 27.3101 78.3213 28.0924 78.7097 28.811C79.1039 29.5296 79.6547 30.1033 80.3619 30.5321C81.075 30.9609 81.8663 31.1753 82.7359 31.1753C83.9417 31.1753 84.9389 30.7813 85.7273 29.9932V30.9667H87.7099V21.9614H85.7273V22.9349Z" fill="url(#paint0_linear)"/>
</g>
<defs>
<filter id="filter0_d" x="0" y="0" width="106.96" height="38" filterUnits="userSpaceOnUse" color-interpolation-filters="sRGB">
<feFlood flood-opacity="0" result="BackgroundImageFix"/>
<feColorMatrix in="SourceAlpha" type="matrix" values="0 0 0 0 0 0 0 0 0 0 0 0 0 0 0 0 0 0 127 0"/>
<feOffset/>
<feGaussianBlur stdDeviation="1.5"/>
<feColorMatrix type="matrix" values="0 0 0 0 0.102934 0 0 0 0 0.239718 0 0 0 0 0.504167 0 0 0 0.05 0"/>
<feBlend mode="normal" in2="BackgroundImageFix" result="effect1_dropShadow"/>
<feBlend mode="normal" in="SourceGraphic" in2="effect1_dropShadow" result="shape"/>
</filter>
<linearGradient id="paint0_linear" x1="3" y1="35" x2="72.0918" y2="-30.5763" gradientUnits="userSpaceOnUse">
<stop offset="0.078125" stop-color="#37D5D6"/>
<stop offset="0.927083" stop-color="#A55BFF"/>
<stop offset="0.958333" stop-color="#A55BFF"/>
</linearGradient>
</defs>
</svg>
