<svg width="508" height="174" viewBox="0 0 508 174" fill="none" xmlns="http://www.w3.org/2000/svg">
<g opacity="0.5">
<path d="M113.084 13.0672L58.9677 124.886C52.8719 137.455 43.4171 143.74 30.6035 143.74H15.1151V124.699H27.4312C33.0294 124.699 37.2591 121.837 40.1204 116.112L45.532 105.098L0 13.0672H22.9526L56.915 83.2571L90.131 13.0672H113.084Z" fill="#929FB1"/>
<path d="M209.152 47.0421V143.74H187.879V66.083H140.854V143.74H119.581V47.0421H209.152Z" fill="#929FB1"/>
<path d="M281.951 145.98C271.936 145.98 262.855 143.74 254.706 139.26C246.558 134.779 240.182 128.681 235.579 120.965C231.038 113.187 228.768 104.662 228.768 95.3909C228.768 86.1194 231.038 77.6257 235.579 69.9098C240.182 62.1317 246.558 56.0025 254.706 51.5223C262.855 47.0421 271.936 44.802 281.951 44.802C295.573 44.802 307.392 48.9089 317.406 57.1226L306.396 73.7366C298.248 67.1408 290.099 63.8428 281.951 63.8428C273.118 63.8428 265.654 66.8919 259.558 72.9899C253.462 79.088 250.414 86.555 250.414 95.3909C250.414 104.227 253.462 111.694 259.558 117.792C265.654 123.89 273.118 126.939 281.951 126.939C290.908 126.939 299.181 123.454 306.77 116.485L319.272 131.979C309.133 141.313 296.693 145.98 281.951 145.98Z" fill="#929FB1"/>
<path d="M399.245 142.06C396.632 139.384 395.326 136.086 395.326 132.166C395.326 128.246 396.632 124.979 399.245 122.365C401.919 119.69 405.216 118.352 409.135 118.352C413.054 118.352 416.319 119.69 418.932 122.365C421.606 124.979 422.944 128.246 422.944 132.166C422.944 136.086 421.606 139.384 418.932 142.06C416.319 144.673 413.054 145.98 409.135 145.98C405.216 145.98 401.919 144.673 399.245 142.06ZM399.245 68.5097C396.632 65.8341 395.326 62.5361 395.326 58.6159C395.326 54.6958 396.632 51.429 399.245 48.8155C401.919 46.1398 405.216 44.802 409.135 44.802C413.054 44.802 416.319 46.1398 418.932 48.8155C421.606 51.429 422.944 54.6958 422.944 58.6159C422.944 62.5361 421.606 65.8341 418.932 68.5097C416.319 71.1232 413.054 72.4299 409.135 72.4299C405.216 72.4299 401.919 71.1232 399.245 68.5097Z" fill="#929FB1"/>
<path d="M467.506 134.219C461.535 119.099 458.549 103.293 458.549 86.8039C458.549 70.3142 461.535 54.5402 467.506 39.4818C473.478 24.3611 481.937 11.2005 492.885 0L508 11.3872C499.105 21.6543 492.294 33.3215 487.567 46.3887C482.901 59.456 480.569 72.9277 480.569 86.8039C480.569 100.68 482.901 114.152 487.567 127.219C492.294 140.286 499.105 151.953 508 162.221L492.885 173.608C481.937 162.407 473.478 149.278 467.506 134.219Z" fill="#929FB1"/>
</g>
</svg>
