<svg width="24" height="24" viewBox="0 0 24 24" fill="none" xmlns="http://www.w3.org/2000/svg">
<path fill-rule="evenodd" clip-rule="evenodd" d="M21.0045 13.9877C20.4833 14.633 19.7614 15.3724 18.9056 16.0793L17.4842 14.6578L17.5558 14.5998C18.3496 13.953 19.0029 13.2828 19.4486 12.731C19.6725 12.4538 19.8311 12.2224 19.928 12.0515C19.9387 12.0327 19.9481 12.0155 19.9564 12C19.9481 11.9845 19.9387 11.9673 19.928 11.9485C19.8311 11.7776 19.6725 11.5462 19.4486 11.269C19.0029 10.7172 18.3496 10.047 17.5558 9.40024C15.9375 8.08158 13.9102 7 12 7C11.3846 7 10.7571 7.11225 10.135 7.30851L8.58073 5.7542C9.65796 5.29608 10.8167 5 12 5C14.5898 5 17.0625 6.41842 18.8192 7.84977C19.7129 8.57795 20.4658 9.34535 21.0045 10.0123C21.2728 10.3444 21.5009 10.6677 21.6677 10.9617C21.8057 11.2051 22 11.5921 22 12C22 12.4079 21.8057 12.7949 21.6677 13.0383C21.5009 13.3323 21.2728 13.6556 21.0045 13.9877ZM15.4167 18.2469L17.0331 19.8633C17.4236 20.2539 18.0568 20.2539 18.4473 19.8634C18.8379 19.4728 18.8379 18.8397 18.4473 18.4492L5.71954 5.72111C5.32902 5.33058 4.69586 5.33057 4.30533 5.72109C3.9148 6.11162 3.9148 6.74478 4.30532 7.13531L5.09235 7.92236C4.23742 8.62876 3.51631 9.36747 2.9955 10.0123C2.72721 10.3444 2.49912 10.6677 2.33234 10.9617C2.19425 11.2051 2 11.5921 2 12C2 12.4079 2.19425 12.7949 2.33234 13.0383C2.49912 13.3323 2.72721 13.6556 2.9955 13.9877C3.53418 14.6547 4.28714 15.422 5.18083 16.1502C6.93747 17.5816 9.41015 19 12 19C13.1823 19 14.3402 18.7044 15.4167 18.2469ZM13.8622 16.6924C13.241 16.8881 12.6144 17 12 17C10.0898 17 8.06253 15.9184 6.44417 14.5998C5.65036 13.953 4.99707 13.2828 4.55138 12.731C4.32748 12.4538 4.16885 12.2224 4.07196 12.0515C4.06127 12.0327 4.05187 12.0155 4.04363 12C4.05187 11.9845 4.06127 11.9673 4.07196 11.9485C4.16885 11.7776 4.32748 11.5462 4.55138 11.269C4.99707 10.7172 5.65036 10.047 6.44417 9.40024C6.4673 9.38139 6.49052 9.36259 6.51381 9.34384L8.13514 10.9652C8.04699 11.2953 8 11.6421 8 12C8 14.2091 9.79086 16 12 16C12.3578 16 12.7047 15.953 13.0347 15.8649L13.8622 16.6924ZM16 12C16 12.3589 15.9527 12.7068 15.8641 13.0377L10.9624 8.1359C11.2933 8.04726 11.6411 8 12 8C14.2091 8 16 9.79086 16 12Z" fill="#929FB1"/>
</svg>
