<svg width="24" height="24" viewBox="0 0 24 24" fill="none" xmlns="http://www.w3.org/2000/svg">
<path fill-rule="evenodd" clip-rule="evenodd" d="M4.07196 12.0515C4.06127 12.0327 4.05187 12.0155 4.04363 12C4.05187 11.9845 4.06127 11.9673 4.07196 11.9485C4.16885 11.7776 4.32748 11.5462 4.55138 11.269C4.99707 10.7172 5.65036 10.047 6.44417 9.40024C8.06253 8.08158 10.0898 7 12 7C13.9102 7 15.9375 8.08158 17.5558 9.40024C18.3496 10.047 19.0029 10.7172 19.4486 11.269C19.6725 11.5462 19.8311 11.7776 19.928 11.9485C19.9387 11.9673 19.9481 11.9845 19.9564 12C19.9481 12.0155 19.9387 12.0327 19.928 12.0515C19.8311 12.2224 19.6725 12.4538 19.4486 12.731C19.0029 13.2828 18.3496 13.953 17.5558 14.5998C15.9375 15.9184 13.9102 17 12 17C10.0898 17 8.06253 15.9184 6.44417 14.5998C5.65036 13.953 4.99707 13.2828 4.55138 12.731C4.32748 12.4538 4.16885 12.2224 4.07196 12.0515ZM12 5C9.41015 5 6.93747 6.41842 5.18083 7.84977C4.28714 8.57795 3.53418 9.34535 2.9955 10.0123C2.72721 10.3444 2.49912 10.6677 2.33234 10.9617C2.19425 11.2051 2 11.5921 2 12C2 12.4079 2.19425 12.7949 2.33234 13.0383C2.49912 13.3323 2.72721 13.6556 2.9955 13.9877C3.53418 14.6547 4.28714 15.422 5.18083 16.1502C6.93747 17.5816 9.41015 19 12 19C14.5898 19 17.0625 17.5816 18.8192 16.1502C19.7129 15.422 20.4658 14.6547 21.0045 13.9877C21.2728 13.6556 21.5009 13.3323 21.6677 13.0383C21.8057 12.7949 22 12.4079 22 12C22 11.5921 21.8057 11.2051 21.6677 10.9617C21.5009 10.6677 21.2728 10.3444 21.0045 10.0123C20.4658 9.34535 19.7129 8.57795 18.8192 7.84977C17.0625 6.41842 14.5898 5 12 5ZM14 12C14 13.1046 13.1046 14 12 14C10.8954 14 10 13.1046 10 12C10 10.8954 10.8954 10 12 10C13.1046 10 14 10.8954 14 12ZM16 12C16 14.2091 14.2091 16 12 16C9.79086 16 8 14.2091 8 12C8 9.79086 9.79086 8 12 8C14.2091 8 16 9.79086 16 12Z" fill="#929FB1"/>
</svg>
