<?xml version="1.0" encoding="UTF-8"?>
<!DOCTYPE svg PUBLIC "-//W3C//DTD SVG 1.1//EN" "http://www.w3.org/Graphics/SVG/1.1/DTD/svg11.dtd">
<!-- Creator: CorelDRAW 2020 (64-Bit) -->
<svg xmlns="http://www.w3.org/2000/svg" xml:space="preserve" width="300mm" height="300mm" version="1.1" style="shape-rendering:geometricPrecision; text-rendering:geometricPrecision; image-rendering:optimizeQuality; fill-rule:evenodd; clip-rule:evenodd"
viewBox="0 0 300000 300000"
 xmlns:xlink="http://www.w3.org/1999/xlink"
 xmlns:xodm="http://www.corel.com/coreldraw/odm/2003">
 <defs>
  <style type="text/css">
   <![CDATA[
    .str3 {stroke:black;stroke-width:1000;stroke-miterlimit:114.593}
    .str1 {stroke:black;stroke-width:1000;stroke-miterlimit:22.9256}
    .str0 {stroke:black;stroke-width:1000;stroke-miterlimit:2.61313}
    .str2 {stroke:black;stroke-width:1000;stroke-miterlimit:1145.92}
    .str5 {stroke:black;stroke-width:750;stroke-miterlimit:28.6537}
    .str6 {stroke:black;stroke-width:750;stroke-miterlimit:114.593}
    .str4 {stroke:black;stroke-width:750;stroke-miterlimit:22.9256}
    .fil6 {fill:none}
    .fil1 {fill:#2D2E30}
    .fil2 {fill:black}
    .fil0 {fill:#CF8329}
    .fil4 {fill:#F6A89A}
    .fil3 {fill:#FDD07B}
    .fil7 {fill:#FFE8BC}
    .fil5 {fill:white}
   ]]>
  </style>
   <clipPath id="id0">
    <rect x="135753" y="56139.5" width="130000" height="180991.8"/>
   </clipPath>
 </defs>
 <g id="Слой_x0020_1">
  <metadata id="CorelCorpID_0Corel-Layer"/>
  <g style="clip-path:url(#id0)">
   <image x="135753" y="56139.5" width="129999.9" height="180991.8" xlink:href="Практическая работа 1 (138)_Images\Практическая работа 1 (138)_ImgID1.png"/>
  </g>
  <g id="Джерри_x0020_Вектор">
   <g id="Правая_x0020_нога">
    <path class="fil0 str0" d="M95912.1 212380.5c-5100.1,6211.5 -6348.6,11487.2 1040.8,16501.9 5630.5,3821.1 13303.4,6570.5 18843.9,4055.1 4300,-1952.3 5365.2,-3884.1 2146.7,-9055.1 -813.2,-1306.7 -4621.5,-4550.9 -8597.8,-5441.1 916,-599.4 2488.9,-1947.7 3057.4,-3068.3 -6771.3,1786.8 -12438.1,1640.9 -16491,-2992.5z"/>
    <g>
     <path class="fil1" d="M109041.6 226811.3c1836.6,271 4248.3,1073.1 5226,2179.4 571.7,646.8 2674.8,3878.8 2375.2,3540.6 -89.3,-101 -126.2,187.4 -211.8,88.4 -1712.8,-1980.5 -2949.3,-3918.1 -7389.4,-5808.4z"/>
     <path id="1" class="fil2" d="M109041.6 226811.3c1836.6,271 4248.3,1073.1 5226,2179.4 571.7,646.8 2674.8,3878.8 2375.2,3540.6 -89.3,-101 -126.2,187.4 -211.8,88.4 -1712.8,-1980.5 -2949.3,-3918.1 -7389.4,-5808.4z"/>
    </g>
   </g>
   <path class="fil0 str1" d="M69656.6 133987.6c-1942.9,1622.8 -3643.6,7437.4 -3733.7,7336.5 -1213.3,-1359.4 -2571.3,-3854.8 -4438.2,-5283.6 -11189.1,-6537.8 -20174.6,-8146.7 -31087.8,-15781.3 -1687.2,-1180.3 -10173,-6109.9 -14902.2,-9714.7 -2704.2,-2215.3 -5249.2,-4936.8 -7583.4,-8077.7 -9251.8,-14064.6 -1201.4,-19635.9 2035.1,-10158.5 145.4,425.8 336.7,792.9 887.9,1698.2 -152.4,-599.5 -304.8,-1198.9 -457.2,-1798.4 1154.9,-838.8 1831.9,-3220.2 2099,-5468.9 1025.2,-8630.4 7393.5,-8785.9 6054.1,-979.9 -81.2,1039.4 -474.7,3002.3 -347.6,4219.9l578.2 -3370.2c930.5,317.6 1355.5,337.2 2493.6,3955.1 -63.8,-814.8 -42.8,-1868 49.6,-2717.5 560.9,-4692.7 4835.7,-1540 3784.5,4672.9 -145.6,860.3 -603.1,1895.7 -668.5,2434 -98.9,814.3 -432,4279.8 -815.5,6528.5l-1979.2 137.2c693.6,100.1 1387.1,200.2 2080.6,300.2 6594.7,2457.1 16786.6,5894.6 24839.7,7312.4 4070.7,877 9094.1,2444.4 12906.7,3131.5 4190.1,755.1 9188.6,4657.7 11862.1,10008.2 301.4,1002.5 667.6,1745.7 1164.9,3457.4 -10.9,-834.5 -650,-2651 -725.8,-3238.7 5420.9,2489.5 11382.6,3786.7 15711.6,3597.8 7073.9,-308.8 14872.7,-1523.8 20227.5,-5928.8 11056.2,9714.7 20469,9788.5 23280.5,16642.2 2110.2,5144.1 -1185.6,9035 -8040.5,14903.1 -2136,1828.6 -5035.5,2966.1 -8169.7,4580 777.4,-168.3 1706.5,-627.1 2483.9,-795.4 166.6,476.1 409.8,1038.8 551.7,1662.7 48.2,-456.3 -145.7,-1544.7 -143,-2014 1821.4,-913.7 3594.3,-2259.4 5277.1,-3433.3 2617.5,3391 1994.4,7577.2 -4276.1,10846.6 6403.8,5766.1 15081.2,12657.9 9072.7,24860.6 -1827.3,3122.5 -3492,6389.8 -5319.3,9512.3 -898.7,-16.4 -3577.3,228.9 -5667.1,1369.8 -1489.5,439.5 -4997.3,485.4 -6334.1,426.7 -1170.2,-104 -3785.8,-2932 -4952.9,-4082.1 937.9,1672.9 3836.1,4376.5 5112.4,4704.9 959.7,395.9 2413.9,1156 3607.9,1239.6 -1084.7,-446.3 -2950.2,-1046.2 -3913.4,-1567.1 1477.3,170 5483.9,-35.8 6540.5,-513.5 800.7,-361.9 3303.1,-1229.7 5500,-1292.2 6226.3,1325.7 6920,19251.6 -6544,25982.5 -1221.9,-1316.8 -3276.4,-2958.4 -4530.3,-3729 1024.8,-1302.6 2887,-2055.7 3847,-2313.7 -1520,8.6 -3047,909.7 -3847,2313.7 -826.7,-502.1 -2424.8,-903.9 -3235.3,-1503.2 -601.7,352.1 -725.9,574 -1388.3,865.3 1250.7,-974.3 2726,-2053.5 3702.1,-3228.7 1109.3,-969.8 3006.2,-1251.5 4771.6,-2360.7 -1485.4,639.5 -3101.3,1090.8 -5023.1,2048.3 -7060.5,2338.9 -12598.5,859 -16143.8,-3004.1 -7603.3,-8038.8 -8937.6,-16229.1 -13286.2,-24548.6 -10622.9,-10953.6 -21611.3,-27634.1 -16703,-46507.8 39.7,-152.6 2567.2,-5965.9 3733.7,-7336.5z"/>
   <path id="Грудь" class="fil3 str0" d="M65649.3 142644.9c-4242.3,17396.6 6968,35902.4 17434.4,45617.1 18099.4,14572 30939.3,-1509.7 27626.1,-11942.8 -2188.1,-6890.3 -10328.6,-12773.4 -14398.5,-18215.1 -2196.7,-2937.2 -3101.6,-10720.6 -4553.7,-18415.5 -44.1,-233.5 -1064.2,-5330.8 -3946.6,-6194.6 -4057.3,-1215.9 -7531.6,7690.2 -10392.4,7598.7 -3786.7,123.9 -3361.4,-7516.4 -5944.6,-7880.6 -2528.4,-356.4 -4930.7,5767.2 -5824.7,9432.8z"/>
   <g id="левое_x0020_ухо">
    <path id="Левое_x0020_ухо" class="fil4 str0" d="M97167 68467.2c3415.3,1875.5 7880.3,4655.5 10872.8,9035.8 1123.1,-5710.1 3247.7,-13870.4 -2297.1,-22035.7 -3350.9,-4517.9 -10534.2,1506 -8575.7,12999.9z"/>
    <path class="fil0 str1" d="M88466.4 67044.9c3328.7,-190.4 6198.1,216.2 8791.1,1472.1 704.8,-10226.1 4175.9,-13441.9 8074.3,-13433.2 85.1,0.2 -61.3,-76.8 24.9,-73.6 -4012.3,-4827.3 -11501,188.2 -16890.3,12034.7z"/>
   </g>
   <path class="fil0 str2" d="M38916.5 64744c1981.3,-4183.2 7402.6,-10320 12243.3,-9249.3 8878.5,1963.7 15012,13027.5 20772.6,17463.6 -2578.7,-2706.9 -2678.3,-3061.6 -3294.4,-3517.9 7134.6,-1728.5 15255.1,-5869.5 22274.2,-11035.8 -3274.4,3566.5 -5921.6,5197.7 -10409,7935.8 2229.9,-603.2 14457.9,-3768 29372.7,-409.4 -9362.1,-721.7 -17872.2,-1396.8 -26011.2,1887.7 14360.5,-2249.4 21867.5,4549.6 26520.2,13581.8 -277.6,127.1 -2238.1,1525.5 -2531,3238.2 401.5,-900.2 982.4,-1593.8 1172.6,-1812.1 2441.4,-2802.2 5769.4,-584.4 6345.9,5050.3 589.1,5757.9 -3617.4,10439 -3621.4,16668.2 1121.3,1156.8 2246.7,2276.1 3397.9,2993.4 714,1335.5 557.1,3413.2 201.8,4849.7 -1145.5,4632.8 -3750.3,6113.6 -5269.4,7871 -10055.6,6476.4 -22927.4,8440.5 -36608.1,2345.1 -914.6,-1694.3 -6546.7,-10173.4 -12228.6,-10295.5 -5529.9,-868.6 -8647.1,-2095.6 -12699,-3077 -9075.6,-17202.1 -15666.8,-31740 -9629.1,-44487.8z"/>
   <g id="Левый_x0020_глаз">
    <path class="fil5 str0" d="M111512.6 87562.5c-1814.6,-253 -3701.9,2534.7 -5198.7,8004.7 -686,2507 -1288.2,5360.2 -540,9983.4 676.9,-186.1 2141.8,-348.9 2749,-180.5 1463,-2890.9 2884.4,-5547.7 3912.5,-9030.3 1384,-4689 941.9,-8517.3 -922.8,-8777.3z"/>
    <path class="fil2" d="M110545.7 101100.2c-167,-270.4 -262.6,-676 -618,-726.4 -609.9,-86.5 -1626.4,694.6 -1897.5,1398.7 -305.3,793.3 -795.1,2237.1 -1078.7,3453.2l1717.3 94.3c609,-1404.1 1552.7,-2724.3 1876.9,-4219.8z"/>
    <path class="fil6 str3" d="M110322.8 87448.9c1217,-2379 1754,-3618.4 1162.3,-7124 939.7,2625.4 416.3,4922.4 -476.9,6855.1l-685.4 268.9z"/>
    <path class="fil6 str3" d="M111922.3 87589.5c1364.7,-2376.6 2353.6,-4295.2 2538.6,-7018.8 -701.4,2769 -1705.6,5351.1 -3174.4,6976 156.1,5.7 479.7,37 635.8,42.8z"/>
   </g>
   <g id="Правый_x0020_глаз">
    <path class="fil5 str0" d="M84265.3 93370.9c419.2,-506 1180.4,-1406.1 1599.6,-1912.1 4007.6,2153.6 6711.5,7449.3 10522.1,10173.8 397.5,1869.6 160.3,3977.9 -1886.6,5673.7 -1850.4,168.8 -4784.5,732.4 -5204.3,198.6 -3880.5,-4934.4 -5318.1,-10781.1 -5030.8,-14134z"/>
    <path class="fil6 str4" d="M84247.9 93180.1c-2404.3,2553 -6020.6,3931.8 -10236.2,3327.3 5839.4,-141.1 9639.9,-2869.5 11150.3,-4884.4 -715.8,173.8 -4727.4,1820.8 -7517.5,359.6 2164.6,711.6 4485.3,407 7483.1,-622.4 -1436.4,-1448.1 -3910.3,-1566.9 -5809.9,-2506.5 3161.6,646.3 5182.8,1065.7 6608.2,2502.5 -552.4,952.3 -1049.1,1156.2 -1678,1823.9z"/>
    <path class="fil6 str4" d="M96775.4 101634.5c2824.5,-151 3139.4,-2201.6 2734.6,-5522.4 1249,4717.7 -376.2,5471 -2581.9,5846.7 -2.2,-45.4 -147.4,-294.5 -152.7,-324.3z"/>
    <path class="fil2" d="M96153.6 101654.3c-562.9,0 -1629.6,602 -2333.2,1940.8 -703.6,1338.7 -684.3,3125.8 -587.6,3711.2 129.7,0 1413.4,-149.1 1581.1,-276 560.4,-424.3 1012.3,-1729.5 1478.4,-2784.7 605.9,-1371.1 424.2,-2591.3 -138.7,-2591.3z"/>
    <path class="fil6 str5" d="M79363.5 84734c-4028.9,-189.8 -7995,2102 -8554.4,6647.5 -586.5,-3862.9 4133.5,-8069.6 8554.4,-6647.5z"/>
   </g>
   <path id="Правое_x0020_ухо" class="fil4 str1" d="M48783.5 60376.6c-7613.1,691 -15072.4,8787.3 -12801.6,25163.2 1924.9,13880.8 8543.6,19552.6 12563.7,23692 2799.5,740 9461.3,2813.5 12699,3077 -3729.5,-2634.3 -6077.2,-13689 -4865.3,-18454.5 -4127.8,-846.7 -8920.7,-5337.7 -8070.9,-11435.7 838.4,7132.4 7072.7,9903.6 9249.7,8306.2 10413.6,-7640.9 -1416.8,-31016 -8774.6,-30348.2z"/>
   <g id="Морда">
    <path id="Рот" class="fil7 str1" d="M80697.1 116077c1271.2,5354.1 6152,9096 9216.1,10160.8 6014.7,-274.5 9701.5,-1289.3 12681.1,-2363.7 3481.2,-3059.6 5430,-5691 5959.2,-7528.3 -1064,485.7 -1584,883.4 -2712.2,1470.5 961,-718.6 1907.5,-1670.4 2842.3,-1817.4 957,-1382.1 2226.8,-2443.1 3122.6,-3860 763.2,-1207.3 908.5,-2743.9 320.9,-3807.7 -670,-1235.4 -2168.9,-2723.6 -3487.4,-2810.1 -2497.3,-164 -5003,346.3 -6764.1,1772.3 -4537.2,-345.1 -8733.7,-742 -12562.3,349.6 -1271,-1403.9 -3300.4,-3015.3 -4821.6,-3705.1 1517,285.5 3736.8,1975.6 4821.6,3705.1 80.9,1243.7 -404.3,3611.6 -1514.7,4860.2 2006.5,1919.2 4450.2,4318.1 7588.6,5350.5 -2951.8,-34.7 -6401.6,-3435.2 -7849.4,-5087.6 -459.5,410.9 -1002.4,608 -1531.3,841 120,435.9 112.1,711.5 310.1,1182.1 -274.6,-326.7 -395.4,-666.8 -618,-1062.8 -2382.4,724.3 -3716.4,1670.8 -6124.8,2074.2 578.7,-24.8 801.3,-113.2 934.1,-54 80.9,89.7 150.5,167.7 189.2,330.4z"/>
    <g id="Нос">
     <path class="fil2" d="M103452.1 107991.6c2701.7,0 4406.3,-42.1 4406.3,1403.7 0,1445.9 -1803,3243.3 -4198.2,4769.2 -481.2,-1700.2 -4685.6,-1650.8 -4718.5,-3138.5 -35.6,-1614.6 1808.6,-3034.4 4510.4,-3034.4z"/>
     <path class="fil5" d="M103394.4 108877.9c1425.8,-192.5 2745.3,-128.1 2745.3,292 0,420.1 -1062.6,1146.8 -2468.2,1479.4 -1405.6,332.7 -2628.5,79.3 -2612.2,-347.5 14.5,-378.9 668.6,-1198.8 2335.1,-1423.9z"/>
    </g>
    <path id="ус" class="fil6 str6" d="M112073.2 112068.3c34.7,-133 69.5,-266 104.1,-399 5747.9,266.1 12467.2,3203.6 16306.9,6522.8 -4377.4,-2752.5 -11166.1,-6389.8 -16411,-6123.8z"/>
    <path id="ус_0" class="fil6 str6" d="M112127.1 108331.2c3063.7,-1024.9 7463.1,-1920.7 10353.3,-1527.9 -2894.9,-39.1 -7633.4,735.4 -10203.2,1849.4 -36.1,-87.8 -100.7,-227.4 -150.1,-321.5z"/>
    <path id="Ус" class="fil6 str6" d="M88155.5 111665.2c82.4,-179.6 111.2,-237.7 216.9,-416.2 -4189.5,-332.5 -8777.9,-704.5 -14632.7,555 5525.9,-829.6 8991.8,-798 14415.8,-138.8z"/>
    <path id="ус_1" class="fil6 str6" d="M88863.5 108005c-98.6,-375.7 -171.3,-323 -270,-698.7 -3180,-1931.5 -10723,-3684.3 -16626.5,-3863.7 6274.3,660.1 12906.6,2012.2 16896.5,4562.4z"/>
   </g>
   <path id="Подмышка" class="fil2 str1" d="M108494.5 149206.1c-1331.2,-1235.2 -2463.5,-2663.3 -3297.6,-4349.7 -834,-1686.3 -1209.4,-3638.1 -1363.9,-5346.5 -62.3,-6.6 -1164.8,-129.7 -1734.2,-278.4 726.1,67.3 1677.7,288.3 1734.2,278.4 3756.3,243.8 7134.4,1872.2 8848.2,3677.1 58.2,61.4 601.1,654 795.9,964.1 -236.2,-260.2 -882.7,-903.6 -935.3,-832 -1614.4,2071.2 -2749.7,4278.6 -4047.3,5887 -9389.1,11637.4 12545.9,13859.8 12162,13445 -1508.8,432 -20608.2,-2255.1 -12162,-13445z"/>
  </g>
 </g>
</svg>
